<?xml version="1.0" encoding="iso-8859-1"?>
<!-- Generator: Adobe Illustrator 19.0.0, SVG Export Plug-In . SVG Version: 6.00 Build 0)  -->
<svg version="1.1" id="Capa_1" xmlns="http://www.w3.org/2000/svg" xmlns:xlink="http://www.w3.org/1999/xlink" x="0px" y="0px"
	 viewBox="0 0 512 512" style="enable-background:new 0 0 512 512;" xml:space="preserve">
<g>
	<g>
		<path d="M479.951,202.667C479.951,155.125,467.588,0,308.506,0c-87.755,0-150.688,22.667-187.158,67.371
			c-26.753,34.722-38.318,78.792-32.064,122.176L38.073,265.11c-3.906,5.788-6.003,12.608-6.023,19.591
			c-0.055,19.44,15.66,35.245,35.1,35.3h26.485c-2.827,26.368-4.629,83.595,30.944,95.477c20.252,5.633,41.479,6.844,62.24,3.552
			l-26.325,78.933c-0.362,1.088-0.547,2.227-0.547,3.373c0.001,5.891,4.778,10.666,10.669,10.664h234.667
			c0.67,0.001,1.339-0.06,1.997-0.184c5.789-1.09,9.599-6.667,8.509-12.456l-0.501-2.656
			c-11.402-63.185-0.466-128.369,30.933-184.373C468.612,271.872,479.951,234.976,479.951,202.667z M392.612,490.667h-207.2
			l27.296-81.963c0.64-1.922,0.719-3.986,0.228-5.951c-1.427-5.716-7.217-9.193-12.932-7.766
			c-0.448,0.085-40.128,9.771-68.715,0.224c-20.907-6.976-19.093-59.659-14.933-84.085c0.101-0.593,0.152-1.193,0.152-1.794
			c-0.001-5.891-4.778-10.666-10.669-10.664H67.151c-7.638,0-13.837-6.176-13.867-13.813c-0.005-2.767,0.828-5.47,2.389-7.755
			l53.664-79.083c1.612-2.389,2.196-5.325,1.621-8.149c-6.287-38.491,3.444-77.879,26.933-109.013
			c32.192-39.499,89.547-59.52,170.613-59.52c135.488,0,150.112,126.816,150.112,181.333c0,28.651-10.443,62.08-31.061,99.339
			C395.487,359.342,383.206,425.648,392.612,490.667z"/>
	</g>
</g>
<g>
	<g>
		<path d="M351.951,74.667c-35.346,0-64,28.654-64,64s28.654,64,64,64c35.322-0.059,63.941-28.678,64-64
			C415.951,103.32,387.297,74.667,351.951,74.667z M351.951,181.333c-23.564,0-42.667-19.102-42.667-42.667S328.387,96,351.951,96
			s42.667,19.103,42.667,42.667C394.618,162.231,375.515,181.333,351.951,181.333z"/>
	</g>
</g>
<g>
	<g>
		<rect x="381.545" y="71.998" transform="matrix(0.7071 -0.7071 0.7071 0.7071 61.0127 312.68)" width="52.799" height="21.387"/>
	</g>
</g>
<g>
	<g>
		<path d="M234.618,74.667c-17.673,0-32,14.327-32,32s14.327,32,32,32c17.659-0.035,31.965-14.341,32-32
			C266.618,88.994,252.291,74.667,234.618,74.667z M234.618,117.333c-5.891,0-10.667-4.776-10.667-10.667S228.727,96,234.618,96
			s10.667,4.776,10.667,10.667S240.509,117.333,234.618,117.333z"/>
	</g>
</g>
<g>
	<g>
		<path d="M191.951,202.667c-23.564,0-42.667,19.102-42.667,42.667S168.387,288,191.951,288
			c23.545-0.047,42.62-19.122,42.667-42.667C234.618,221.769,215.515,202.667,191.951,202.667z M191.951,266.667
			c-11.782,0-21.333-9.551-21.333-21.333s9.551-21.333,21.333-21.333c11.782,0,21.333,9.551,21.333,21.333
			C213.284,257.115,203.733,266.667,191.951,266.667z"/>
	</g>
</g>
<g>
	<g>
		<path d="M373.284,256c-17.673,0-32,14.327-32,32c0,17.673,14.327,32,32,32c17.658-0.035,31.965-14.341,32-32
			C405.284,270.327,390.958,256,373.284,256z M373.284,298.667c-5.891,0-10.667-4.776-10.667-10.667s4.776-10.667,10.667-10.667
			s10.667,4.776,10.667,10.667S379.175,298.667,373.284,298.667z"/>
	</g>
</g>
<g>
	<g>
		<path d="M261.284,320c-20.619,0-37.333,16.715-37.333,37.333c0,20.619,16.715,37.333,37.333,37.333
			c20.604-0.035,37.298-16.729,37.333-37.333C298.618,336.715,281.903,320,261.284,320z M261.284,373.333c-8.837,0-16-7.163-16-16
			c0-8.837,7.163-16,16-16c8.837,0,16,7.164,16,16S270.121,373.333,261.284,373.333z"/>
	</g>
</g>
<g>
	<g>
		
			<rect x="216.346" y="186.645" transform="matrix(0.848 -0.5299 0.5299 0.848 -64.0541 171.2959)" width="100.625" height="21.386"/>
	</g>
</g>
<g>
	<g>
		
			<rect x="266.568" y="100.698" transform="matrix(0.2425 -0.9701 0.9701 0.2425 90.9972 361.9178)" width="21.386" height="43.977"/>
	</g>
</g>
<g>
	<g>
		
			<rect x="222.242" y="250.613" transform="matrix(0.4191 -0.9079 0.9079 0.4191 -63.7983 422.9044)" width="152.724" height="21.396"/>
	</g>
</g>
<g>
	<g>
		<rect x="362.581" y="192" width="21.397" height="74.67"/>
	</g>
</g>
<g>
	<g>
		<rect x="325.233" y="10.291" transform="matrix(0.99 -0.1414 0.1414 0.99 -3.4118 47.9845)" width="21.386" height="75.416"/>
	</g>
</g>
<g>
	<g>
		
			<rect x="421.241" y="127.456" transform="matrix(0.1961 -0.9806 0.9806 0.1961 195.5891 547.8781)" width="21.397" height="54.391"/>
	</g>
</g>
<g>
	<g>
		<path d="M346.618,352c-14.728,0-26.667,11.939-26.667,26.667c0,14.728,11.939,26.667,26.667,26.667
			c14.713-0.035,26.631-11.954,26.667-26.667C373.284,363.939,361.345,352,346.618,352z M346.618,384
			c-2.945,0-5.333-2.388-5.333-5.333s2.388-5.333,5.333-5.333s5.333,2.388,5.333,5.333S349.563,384,346.618,384z"/>
	</g>
</g>
<g>
	<g>
		<path d="M293.284,416c-14.728,0-26.667,11.939-26.667,26.667c0,14.728,11.939,26.667,26.667,26.667
			c14.713-0.035,26.632-11.954,26.667-26.667C319.951,427.939,308.012,416,293.284,416z M293.284,448
			c-2.945,0-5.333-2.388-5.333-5.333s2.388-5.333,5.333-5.333c2.946,0,5.333,2.388,5.333,5.333S296.23,448,293.284,448z"/>
	</g>
</g>
<g>
	<g>
		<path d="M165.284,138.667c-14.728,0-26.667,11.939-26.667,26.667c0,14.728,11.939,26.667,26.667,26.667
			c14.713-0.035,26.632-11.954,26.667-26.667C191.951,150.606,180.012,138.667,165.284,138.667z M165.284,170.667
			c-2.945,0-5.333-2.388-5.333-5.333s2.388-5.333,5.333-5.333c2.946,0,5.333,2.388,5.333,5.333
			C170.618,168.279,168.23,170.667,165.284,170.667z"/>
	</g>
</g>
<g>
	<g>
		<path d="M165.284,309.333c-14.728,0-26.667,11.939-26.667,26.667c0,14.728,11.939,26.667,26.667,26.667
			c14.713-0.035,26.632-11.954,26.667-26.667C191.951,321.272,180.012,309.333,165.284,309.333z M165.284,341.333
			c-2.945,0-5.333-2.388-5.333-5.333s2.388-5.333,5.333-5.333c2.946,0,5.333,2.388,5.333,5.333S168.23,341.333,165.284,341.333z"/>
	</g>
</g>
<g>
	<g>
		<rect x="341.281" y="127.97" width="21.333" height="21.397"/>
	</g>
</g>
<g>
</g>
<g>
</g>
<g>
</g>
<g>
</g>
<g>
</g>
<g>
</g>
<g>
</g>
<g>
</g>
<g>
</g>
<g>
</g>
<g>
</g>
<g>
</g>
<g>
</g>
<g>
</g>
<g>
</g>
</svg>
